<?xml version="1.0" encoding="UTF-8"?>
<svg width="8px" height="5px" viewBox="0 0 8 5" version="1.1" xmlns="http://www.w3.org/2000/svg" xmlns:xlink="http://www.w3.org/1999/xlink">
    <!-- Generator: Sketch 52.3 (67297) - http://www.bohemiancoding.com/sketch -->
    <title>Group 59 Copy 5</title>
    <desc>Created with Sketch.</desc>
    <g id="Page-1" stroke="none" stroke-width="1" fill="none" fill-rule="evenodd">
        <g id="火币API" transform="translate(-237.000000, -28.000000)">
            <g id="分组-16">
                <g id="分组-15" transform="translate(213.000000, 22.000000)">
                    <g id="Group-59-Copy-5" transform="translate(28.000000, 8.000000) rotate(-360.000000) translate(-28.000000, -8.000000) translate(23.000000, 3.000000)">
                        <circle id="Oval-17" fill-rule="nonzero" cx="5" cy="5" r="5"></circle>
                        <path d="M5.30878488,3.1761852 L8.74179286,7.34575026 C8.88221111,7.51629547 8.85778839,7.76838115 8.68724319,7.9087994 C8.61563184,7.96776056 8.52575446,8 8.43299346,8 L1.56697749,8 C1.34606359,8 1.16697749,7.8209139 1.16697749,7.6 C1.16697749,7.507239 1.19921694,7.41736162 1.25817809,7.34575026 L4.69118607,3.1761852 C4.83160432,3.00564 5.08369001,2.98121728 5.25423521,3.12163553 C5.27413349,3.13801876 5.29240165,3.15628692 5.30878488,3.1761852 Z" id="Triangle-2" fill="#9AAABB" transform="translate(5.000000, 5.500000) rotate(-180.000000) translate(-5.000000, -5.500000) "></path>
                    </g>
                </g>
            </g>
        </g>
    </g>
</svg>